# xmcd
#
# Track frame offsets:
#	150
#	14026
#	27720
#	39770
#	53614
#	64723
#	77033
#	86312
#	98965
#	110628
#	120935
#	130878
#	139316
#	149687
#	159907
#	169525
#	180225
#	191517
#	201126
#	208423
#	216616
#	225007
#	232568
#	242382
#	249734
#	257976
#	269012
#	279786
#	289821
#	298486
#	306512
#	312639
#	318335
#
# Disc length: 4433 seconds
#
# Revision: 0
# Processed by: cddbd v1.5.1PL0 Copyright (c) Steve Scherf et al.
# Submitted via: audiograbber 1.82.02
#
DISCID=e9114f21
DTITLE=Hank Snow - The Hank Snow Collection CD 10
DYEAR=1900
DGENRE=Country
TTITLE0=Weary River
TTITLE1=Bury Me Deep
TTITLE2=Lets Pretend
TTITLE3=Address Unknown
TTITLE4=Golden River
TTITLE5=Blue Yodel 12
TTITLE6=Get My Baby Out Of Jail
TTITLE7=Brand On My Heart
TTITLE8=With This Ring
TTITLE9=I Wonder Where You Are Tonight
TTITLE10=Fire On The Mountain
TTITLE11=White Christmas
TTITLE12=Blue Christmas
TTITLE13=Making Believe
TTITLE14=Any Old Time
TTITLE15=No More Blues
TTITLE16=When My Blue Moon Turns To Gold Again
TTITLE17=Put Your Arms Around Me
TTITLE18=I Was Wandering
TTITLE19=San Antonio Rose
TTITLE20=Over The Waves
TTITLE21=Do Right Daddy
TTITLE22=As Long As I Live
TTITLE23=Poison Love
TTITLE24=Loose Talk
TTITLE25=The Waltz You Saved For Me
TTITLE26=Memories Are Made Of This
TTITLE27=I Really Don't Want To Know
TTITLE28=The Wayward Wind
TTITLE29=Chant Of The Wanderer
TTITLE30=Old Gray Bonnet
TTITLE31=Maggie
TTITLE32=Beautiful Dreamer
EXTD=
EXTT0=
EXTT1=
EXTT2=
EXTT3=
EXTT4=
EXTT5=
EXTT6=
EXTT7=
EXTT8=
EXTT9=
EXTT10=
EXTT11=
EXTT12=
EXTT13=
EXTT14=
EXTT15=
EXTT16=
EXTT17=
EXTT18=
EXTT19=
EXTT20=
EXTT21=
EXTT22=
EXTT23=
EXTT24=
EXTT25=
EXTT26=
EXTT27=
EXTT28=
EXTT29=
EXTT30=
EXTT31=
EXTT32=
PLAYORDER=
